<?xml version="1.0" encoding="UTF-8" standalone="no"?>
<!-- Created with Inkscape (http://www.inkscape.org/) -->

<svg
   width="108"
   height="108"
   viewBox="0 0 101.24997 101.24997"
   id="svg2"
   version="1.1"
   inkscape:version="1.2.2 (732a01da63, 2022-12-09)"
   sodipodi:docname="ic_launcher_foreground.svg"
   inkscape:export-filename="..\app\src\main\res\mipmap-xxxhdpi\ic_launcher.webp"
   inkscape:export-xdpi="28.463814"
   inkscape:export-ydpi="28.463814"
   xml:space="preserve"
   xmlns:inkscape="http://www.inkscape.org/namespaces/inkscape"
   xmlns:sodipodi="http://sodipodi.sourceforge.net/DTD/sodipodi-0.dtd"
   xmlns="http://www.w3.org/2000/svg"
   xmlns:svg="http://www.w3.org/2000/svg"
   xmlns:rdf="http://www.w3.org/1999/02/22-rdf-syntax-ns#"
   xmlns:cc="http://creativecommons.org/ns#"
   xmlns:dc="http://purl.org/dc/elements/1.1/"><defs
     id="defs4"><rect
       x="462"
       y="280"
       width="171.11284"
       height="353.11285"
       id="rect2420" /><linearGradient
       id="linearGradient4155"
       inkscape:swatch="solid"><stop
         style="stop-color:#000000;stop-opacity:1;"
         offset="0"
         id="stop4157" /></linearGradient><linearGradient
       id="linearGradient4149"><stop
         style="stop-color:#000000;stop-opacity:1;"
         offset="0"
         id="stop4151" /></linearGradient><linearGradient
       id="linearGradient4139"
       inkscape:swatch="gradient"><stop
         style="stop-color:#2b2200;stop-opacity:1;"
         offset="0"
         id="stop4141" /><stop
         style="stop-color:#2b2200;stop-opacity:0;"
         offset="1"
         id="stop4143" /></linearGradient><rect
       x="720.49402"
       y="801.32397"
       width="243.95853"
       height="98.689613"
       id="rect4023" /><linearGradient
       gradientUnits="userSpaceOnUse"
       y2="597.09998"
       x2="707.41602"
       y1="-4.4348102"
       x1="707.41602"
       id="paint0_linear"><stop
         id="stop33"
         stop-color="#D3D3D3" /><stop
         id="stop35"
         stop-color="white"
         offset="1" /></linearGradient><mask
       height="599"
       width="599"
       y="21"
       x="406"
       maskUnits="userSpaceOnUse"
       mask-type="alpha"
       id="mask0-5"><rect
         id="rect4-1"
         fill="#ffffff"
         transform="rotate(-45,406.51,320.148)"
         rx="56.537102"
         height="422.702"
         width="422.702"
         y="320.14801"
         x="406.51001" /></mask><linearGradient
       gradientUnits="userSpaceOnUse"
       y2="597.09998"
       x2="707.41602"
       y1="-4.4348102"
       x1="707.41602"
       id="paint0_linear-2"><stop
         id="stop33-6"
         stop-color="#D3D3D3" /><stop
         id="stop35-5"
         stop-color="white"
         offset="1" /></linearGradient><mask
       maskUnits="userSpaceOnUse"
       id="mask1401"><g
         id="g1405"
         transform="matrix(7.3435953,-7.3435953,7.3435953,7.3435953,-3124.7704,2026.5686)"><rect
           id="rect1403"
           fill="#ffffff"
           rx="5.4438958"
           height="40.701515"
           width="40.701515"
           y="124.2484"
           x="356.61694"
           style="stroke-width:0.0962889" /></g></mask></defs><sodipodi:namedview
     id="base"
     pagecolor="#ffffff"
     bordercolor="#666666"
     borderopacity="1.0"
     inkscape:pageopacity="0.0"
     inkscape:pageshadow="2"
     inkscape:zoom="3.9999998"
     inkscape:cx="165.62501"
     inkscape:cy="31.250002"
     inkscape:document-units="px"
     inkscape:current-layer="layer1"
     showgrid="false"
     fit-margin-top="1"
     fit-margin-left="1"
     fit-margin-right="1"
     fit-margin-bottom="1"
     units="mm"
     inkscape:window-width="2400"
     inkscape:window-height="1244"
     inkscape:window-x="2869"
     inkscape:window-y="-11"
     inkscape:window-maximized="1"
     inkscape:pagecheckerboard="0"
     inkscape:showpageshadow="0"
     inkscape:deskcolor="#d1d1d1"
     showguides="true" /><metadata
     id="metadata7"><rdf:RDF><cc:Work
         rdf:about=""><dc:format>image/svg+xml</dc:format><dc:type
           rdf:resource="http://purl.org/dc/dcmitype/StillImage" /></cc:Work></rdf:RDF></metadata><g
     inkscape:label="Layer 1"
     inkscape:groupmode="layer"
     id="layer1"
     transform="translate(-65.224067,-173.70181)"><path
       id="rect2-4"
       style="fill:#ffffff;stroke:#00353d;stroke-width:0.936224;stroke-linejoin:round;stroke-miterlimit:16;stroke-opacity:0.956863"
       d="m 95.91821,218.37621 14.27058,-14.27056 c 1.62697,-1.62698 4.24656,-1.62698 5.87352,0 l 14.2706,14.27057 c 1.62695,1.62697 1.62696,4.24655 0,5.87353 l -14.27059,14.27058 c -1.62697,1.62696 -4.24656,1.62696 -5.87353,1e-5 L 95.918205,224.24975 c -1.626965,-1.62698 -1.626965,-4.24656 5e-6,-5.87354 z" /><rect
       style="fill:none;fill-opacity:1;stroke:none;stroke-width:3.49135;stroke-miterlimit:4;stroke-dasharray:none"
       id="rect5645-9"
       width="101.24807"
       height="101.25"
       x="65.232002"
       y="173.70621"
       ry="0"
       rx="0"
       inkscape:export-filename="C:\Users\uketmh\Documents\ModelRailway\JMRIDev\EngineDriver\res\drawable-xhdpi\flashlight_on.png"
       inkscape:export-xdpi="14.4"
       inkscape:export-ydpi="14.4" /><g
       transform="matrix(0.87499739,0,0,0.87499739,139.34894,238.97659)"
       id="g14"
       style="fill:none;stroke:none" /><g
       transform="matrix(0.87499739,0,0,0.87499739,139.34894,238.97659)"
       id="g16"
       style="fill:none;stroke:none" /><g
       transform="matrix(0.87499739,0,0,0.87499739,139.34894,238.97659)"
       id="g18"
       style="fill:none;stroke:none" /><g
       transform="matrix(0.87499739,0,0,0.87499739,139.34894,238.97659)"
       id="g20"
       style="fill:none;stroke:none" /><g
       transform="matrix(0.87499739,0,0,0.87499739,139.34894,238.97659)"
       id="g22"
       style="fill:none;stroke:none" /><g
       transform="matrix(0.87499739,0,0,0.87499739,139.34894,238.97659)"
       id="g24"
       style="fill:none;stroke:none" /><g
       transform="matrix(0.87499739,0,0,0.87499739,139.34894,238.97659)"
       id="g26"
       style="fill:none;stroke:none" /><g
       transform="matrix(0.87499739,0,0,0.87499739,139.34894,238.97659)"
       id="g28"
       style="fill:none;stroke:none" /><g
       transform="matrix(0.87499739,0,0,0.87499739,139.34894,238.97659)"
       id="g30"
       style="fill:none;stroke:none" /><g
       transform="matrix(0.87499739,0,0,0.87499739,139.34894,238.97659)"
       id="g32"
       style="fill:none;stroke:none" /><g
       transform="matrix(0.87499739,0,0,0.87499739,139.34894,238.97659)"
       id="g34"
       style="fill:none;stroke:none" /><g
       transform="matrix(0.87499739,0,0,0.87499739,139.34894,238.97659)"
       id="g36"
       style="fill:none;stroke:none" /><g
       transform="matrix(0.87499739,0,0,0.87499739,139.34894,238.97659)"
       id="g38"
       style="fill:none;stroke:none" /><g
       transform="matrix(0.87499739,0,0,0.87499739,139.34894,238.97659)"
       id="g40"
       style="fill:none;stroke:none" /><g
       transform="matrix(0.87499739,0,0,0.87499739,139.34894,238.97659)"
       id="g42"
       style="fill:none;stroke:none" /><path
       id="path9"
       stroke-width="0.668737"
       stroke="#00353d"
       d="m 113.0616,203.1392 -1.21681,0.22484 -1.46517,0.54856 -3.10041,3.11667 0.24179,0.60441 7.27198,-2.9391 1.99118,1.92171 -8.48405,3.0898 0.86572,1.9217 9.56618,-2.97678 1.64482,2.22316 -10.302,2.93912 0.17312,2.5999 12.16337,-2.5999 2.64044,3.768 -14.54406,1.73327 -1.42843,3.08981 17.14118,-1.24344 v 4.67237 l -18.5696,-0.22611 -1.55832,2.67533 17.32013,2.95907 -4.73285,4.72725 -15.1844,-4.52117"
       style="fill:none;stroke:#00353d;stroke-opacity:0.956863"
       mask="url(#mask1395)"
       sodipodi:nodetypes="cccccccccccccccccccccccc" /><path
       id="path11"
       stroke-width="1.33747"
       stroke="#ffffff"
       d="m 104.31779,232.50275 c 12.45926,-9.68725 8.44576,-20.14011 4.07553,-26.28854 m 3.14846,-2.94336 c 6.71002,6.16509 17.90996,19.64669 6.71409,32.99996 l -3.1473,3.1104"
       style="fill:none;stroke:none"
       mask="url(#mask1389)"
       sodipodi:nodetypes="ccccc" /><path
       id="path13"
       stroke-width="0.668737"
       stroke="#00353d"
       d="m 104.31779,232.50275 c 12.49382,-9.71411 8.46568,-20.14169 4.08124,-26.2835 m 3.16432,-2.92858 c 6.71242,6.17414 17.87639,19.64118 6.69252,32.98014 l -2.89668,2.94336"
       style="fill:none;stroke:#00353d;stroke-opacity:0.956863"
       mask="url(#mask1383)"
       sodipodi:nodetypes="ccccc" /><path
       d="m 138.61007,227.54829 -10.31625,-0.0103 c -1.13479,0 -2.06325,0.92846 -2.06325,2.06327 v 18.56924 c 0,1.13479 0.92846,2.06324 2.06325,2.06324 h 10.31625 c 1.13479,0 2.06325,-0.92845 2.06325,-2.06324 v -18.56924 c 0,-1.19018 -0.93751,-2.05294 -2.06326,-2.05294 z m 0,18.55893 h -10.31625 v -14.44275 h 10.31625 z m -6.18974,-47.59225 -37.89878,-1e-5 c -2.290212,0 -4.126504,1.83629 -4.126501,4.1265 l -4e-6,37.49358 c 0,2.26957 1.836292,4.1265 4.1265,4.1265 h 14.822875 v 2.98609 h -4.12649 v 2.98608 h 16.50601 v -2.98608 h -4.12651 v -2.9861 l 6.40732,1e-5 v -2.9861 H 93.381134 v -39.77439 h 40.179586 l 1e-5,23.62103 h 2.98608 l 1e-5,-22.48062 c 0,-2.29021 -1.85693,-4.12649 -4.12649,-4.12649 z"
       id="path281"
       style="fill:#00a3b9;fill-opacity:1;stroke:none;stroke-width:1.03161;stroke-dasharray:none"
       sodipodi:nodetypes="ccssssscccccccccsssscccccccccccccccsc" /><path
       id="rect2"
       style="fill:none;stroke:#00353d;stroke-width:0.936224;stroke-linejoin:round;stroke-miterlimit:16;stroke-opacity:0.956863"
       d="m 95.91821,218.37621 14.27058,-14.27056 c 1.62697,-1.62698 4.24656,-1.62698 5.87352,0 l 14.2706,14.27057 c 1.62695,1.62697 1.62696,4.24655 0,5.87353 l -14.27059,14.27058 c -1.62697,1.62696 -4.24656,1.62696 -5.87353,1e-5 L 95.918205,224.24975 c -1.626965,-1.62698 -1.626965,-4.24656 5e-6,-5.87354 z" /></g></svg>
